<?xml version="1.0" encoding="UTF-8" standalone="no"?>
<!DOCTYPE svg PUBLIC "-//W3C//DTD SVG 1.1//EN"
 "http://www.w3.org/Graphics/SVG/1.1/DTD/svg11.dtd">
<!-- Generated by graphviz version 2.38.0 (20140413.2041)
 -->
<!-- Title: %3 Pages: 1 -->
<svg width="246pt" height="108pt"
 viewBox="0.00 0.00 246.00 108.00" xmlns="http://www.w3.org/2000/svg" xmlns:xlink="http://www.w3.org/1999/xlink">
<g id="graph0" class="graph" transform="scale(1 1) rotate(0) translate(4 104)">
<title>%3</title>
<polygon fill="white" stroke="none" points="-4,4 -4,-104 242,-104 242,4 -4,4"/>
<!-- Opus -->
<g id="node1" class="node"><title>Opus</title>
<polygon fill="none" stroke="black" points="0,-15.5 0,-84.5 54,-84.5 54,-15.5 0,-15.5"/>
<text text-anchor="middle" x="27" y="-69.3" font-family="Times,serif" font-size="14.00">Opus</text>
<polyline fill="none" stroke="black" points="0,-61.5 54,-61.5 "/>
<text text-anchor="middle" x="27" y="-46.3" font-family="Times,serif" font-size="14.00">title</text>
<polyline fill="none" stroke="black" points="0,-38.5 54,-38.5 "/>
<text text-anchor="middle" x="27" y="-23.3" font-family="Times,serif" font-size="14.00"> </text>
</g>
<!-- Author -->
<g id="node2" class="node"><title>Author</title>
<polygon fill="none" stroke="black" points="72.5,-0.5 72.5,-99.5 151.5,-99.5 151.5,-0.5 72.5,-0.5"/>
<text text-anchor="middle" x="112" y="-84.3" font-family="Times,serif" font-size="14.00">Author</text>
<polyline fill="none" stroke="black" points="72.5,-76.5 151.5,-76.5 "/>
<text text-anchor="middle" x="112" y="-61.3" font-family="Times,serif" font-size="14.00">surname</text>
<text text-anchor="middle" x="112" y="-46.3" font-family="Times,serif" font-size="14.00"> first_name</text>
<text text-anchor="middle" x="112" y="-31.3" font-family="Times,serif" font-size="14.00"> born_in</text>
<polyline fill="none" stroke="black" points="72.5,-23.5 151.5,-23.5 "/>
<text text-anchor="middle" x="112" y="-8.3" font-family="Times,serif" font-size="14.00"> </text>
</g>
<!-- Publisher -->
<g id="node3" class="node"><title>Publisher</title>
<polygon fill="none" stroke="black" points="170,-15.5 170,-84.5 238,-84.5 238,-15.5 170,-15.5"/>
<text text-anchor="middle" x="204" y="-69.3" font-family="Times,serif" font-size="14.00">Publisher</text>
<polyline fill="none" stroke="black" points="170,-61.5 238,-61.5 "/>
<text text-anchor="middle" x="204" y="-46.3" font-family="Times,serif" font-size="14.00">city</text>
<polyline fill="none" stroke="black" points="170,-38.5 238,-38.5 "/>
<text text-anchor="middle" x="204" y="-23.3" font-family="Times,serif" font-size="14.00"> </text>
</g>
</g>
</svg>
